<?xml version="1.0" standalone="no"?>
<!DOCTYPE svg PUBLIC "-//W3C//DTD SVG 20010904//EN"
 "http://www.w3.org/TR/2001/REC-SVG-20010904/DTD/svg10.dtd">
<svg version="1.0" xmlns="http://www.w3.org/2000/svg"
 width="4500.000000pt" height="4501.000000pt" viewBox="0 0 4500.000000 4501.000000"
 preserveAspectRatio="xMidYMid meet">

<g transform="translate(0.000000,4501.000000) scale(0.100000,-0.100000)"
fill="#000000" stroke="none">
<path d="M22585 37274 c-848 -32 -1495 -96 -2240 -220 -1897 -318 -3715 -977
-5279 -1916 -2332 -1400 -4048 -3367 -4994 -5723 -508 -1266 -792 -2654 -837
-4095 -5 -141 -12 -222 -27 -290 -30 -137 -30 -341 -1 -425 21 -58 20 -67 -10
-77 -4 -2 4 -56 18 -120 88 -409 103 -707 44 -918 -13 -48 -60 -149 -129 -280
-456 -858 -697 -1684 -760 -2608 -22 -326 -11 -836 26 -1197 61 -597 141
-1007 414 -2115 264 -1072 307 -1320 297 -1735 -6 -236 -20 -337 -71 -488 -83
-248 -135 -318 -499 -677 -580 -572 -1108 -1130 -2333 -2465 -303 -330 -595
-647 -648 -705 -111 -119 -146 -179 -153 -260 -10 -107 7 -140 214 -415 702
-933 1216 -1474 1720 -1808 462 -307 890 -446 1468 -478 277 -15 383 4 515 93
107 71 201 213 229 346 16 75 14 208 -4 276 -35 134 -131 264 -247 333 -29 18
-285 134 -568 259 -547 240 -607 273 -681 367 -95 119 -134 240 -126 392 9
196 73 304 285 477 445 365 1061 853 1882 1493 1131 880 1407 1111 1730 1441
266 272 414 472 549 742 252 502 348 993 506 2602 168 1702 265 2598 295 2708
43 158 117 280 238 394 256 241 628 295 944 137 64 -32 312 -215 498 -368 312
-256 488 -436 736 -751 185 -236 288 -354 484 -554 482 -491 980 -855 1605
-1171 793 -401 1663 -659 2936 -870 509 -84 1830 -265 1936 -265 261 1 495
171 578 421 35 105 99 175 188 208 154 56 296 -6 375 -164 91 -183 1241 -2630
1614 -3435 578 -1246 1358 -2983 1498 -3334 44 -112 123 -276 174 -365 35 -61
88 -120 261 -294 l218 -218 -6 -112 c-12 -229 -97 -446 -261 -665 -90 -120
-105 -158 -86 -222 14 -50 73 -131 128 -177 137 -116 263 -189 384 -224 93
-27 302 -37 419 -20 377 56 709 290 854 605 167 361 126 797 -111 1161 -18 28
-97 212 -177 411 -278 693 -450 1104 -463 1104 -15 0 -31 50 -199 615 -377
1268 -761 2672 -1213 4435 -116 452 -116 456 -115 565 1 82 7 134 26 205 64
247 196 499 350 673 149 167 280 334 652 832 387 518 547 723 716 920 537 629
1001 963 1443 1040 110 19 289 19 377 1 37 -8 131 -42 210 -76 581 -250 1192
-312 1819 -184 1047 215 1844 995 1964 1922 80 619 -136 1225 -606 1705 l-90
91 37 66 c135 241 193 447 181 640 -7 120 -28 202 -77 309 -106 228 -278 419
-644 714 -269 217 -519 438 -860 761 -291 276 -664 633 -815 782 -121 119
-151 143 -184 149 -236 44 -982 -233 -1996 -740 -427 -214 -595 -307 -815
-455 -559 -375 -1065 -661 -1596 -903 -1552 -709 -3181 -981 -5089 -852 -947
65 -1755 183 -3620 529 -1423 264 -2095 375 -2800 460 -1120 137 -2112 169
-3073 100 -125 -9 -229 -15 -232 -13 -11 12 26 507 61 809 254 2167 1240 4089
2878 5612 1173 1090 2695 1955 4356 2476 1098 344 2176 535 3348 593 311 15
1164 6 1452 -15 1270 -95 2393 -344 3475 -771 2486 -980 4321 -2802 5251
-5213 74 -191 148 -321 389 -682 576 -862 1295 -1684 1895 -2165 459 -369 825
-513 1036 -410 99 49 175 161 209 310 23 97 31 385 15 543 -40 426 -187 1041
-415 1742 -24 74 -69 221 -100 325 -636 2169 -1780 4015 -3395 5476 -1497
1354 -3416 2352 -5545 2883 -962 240 -1906 379 -2965 436 -194 11 -1073 20
-1245 14z m7984 -11694 c148 -73 228 -126 304 -201 78 -79 111 -150 105 -232
-5 -89 -38 -148 -132 -243 -164 -165 -467 -327 -910 -485 -129 -47 -424 -139
-443 -139 -10 0 -13 66 -13 338 l0 338 296 342 297 342 187 0 187 0 122 -60z"/>
<path d="M13767 19993 c-202 -631 -287 -1065 -287 -1468 1 -468 110 -766 414
-1124 39 -46 186 -202 327 -346 270 -276 388 -408 510 -571 253 -335 411 -638
574 -1104 49 -138 128 -326 242 -575 585 -1273 1012 -2319 1623 -3975 346
-936 455 -1212 596 -1492 312 -622 632 -856 1294 -942 335 -44 759 -49 2588
-32 l972 9 10 36 c15 57 90 381 90 389 0 4 -51 23 -112 41 -62 19 -292 97
-512 173 -751 260 -1054 340 -1406 368 -72 5 -190 15 -262 20 -243 20 -453 76
-604 161 -159 90 -301 261 -374 452 -59 152 -84 280 -420 2202 -105 600 -231
1313 -281 1585 -180 989 -381 1996 -425 2129 -66 196 -199 416 -390 642 -237
281 -476 493 -1773 1573 -1115 930 -1493 1262 -2097 1843 -122 117 -223 213
-226 213 -2 0 -34 -93 -71 -207z"/>
<path d="M28870 19368 c-687 -927 -670 -906 -1039 -1282 -294 -300 -409 -431
-522 -601 -185 -275 -260 -510 -261 -810 0 -289 50 -494 229 -925 83 -202 253
-545 340 -688 206 -339 465 -613 768 -811 138 -90 364 -202 593 -295 482 -194
826 -355 2012 -946 966 -481 1193 -589 1645 -782 508 -217 720 -341 911 -532
169 -169 249 -315 293 -533 24 -116 28 -290 10 -437 -14 -111 -9 -134 36 -185
65 -71 166 -100 385 -108 136 -5 165 -3 236 15 156 39 306 126 443 257 261
248 389 577 351 895 -47 383 -295 718 -667 904 -40 20 -169 110 -288 201
-1352 1037 -2740 2020 -3938 2789 -416 267 -619 426 -772 605 -307 360 -417
731 -384 1289 23 403 6 717 -81 1492 -22 195 -49 449 -59 564 -11 114 -21 210
-23 211 -2 2 -100 -127 -218 -287z"/>
</g>
</svg>
